<svg width="86" height="100" viewBox="0 0 86 100" fill="none" xmlns="http://www.w3.org/2000/svg">
<mask id="path-1-inside-1_1622_3920" fill="white">
<path fill-rule="evenodd" clip-rule="evenodd" d="M86 -0.00012207H0.285706V59.6665V59.9999H0.287163C0.479022 81.9378 19.5927 99.6665 43.1428 99.6665C66.693 99.6665 85.8067 81.9378 85.9985 59.9999H86V59.6665V-0.00012207Z"/>
</mask>
<path fill-rule="evenodd" clip-rule="evenodd" d="M86 -0.00012207H0.285706V59.6665V59.9999H0.287163C0.479022 81.9378 19.5927 99.6665 43.1428 99.6665C66.693 99.6665 85.8067 81.9378 85.9985 59.9999H86V59.6665V-0.00012207Z" fill="#191919"/>
<path fill-rule="evenodd" clip-rule="evenodd" d="M86 -0.00012207H0.285706V59.6665V59.9999H0.287163C0.479022 81.9378 19.5927 99.6665 43.1428 99.6665C66.693 99.6665 85.8067 81.9378 85.9985 59.9999H86V59.6665V-0.00012207Z" fill="url(#paint0_linear_1622_3920)" fill-opacity="0.35"/>
<path d="M0.285706 -0.00012207V-2.00012H-1.71429V-0.00012207H0.285706ZM86 -0.00012207H88V-2.00012H86V-0.00012207ZM0.285706 59.9999H-1.71429V61.9999H0.285706V59.9999ZM0.287163 59.9999L2.28709 59.9824L2.26975 57.9999H0.287163V59.9999ZM85.9985 59.9999V57.9999H84.0159L83.9986 59.9824L85.9985 59.9999ZM86 59.9999V61.9999H88V59.9999H86ZM0.285706 1.99988H86V-2.00012H0.285706V1.99988ZM2.28571 59.6665V-0.00012207H-1.71429V59.6665H2.28571ZM2.28571 59.9999V59.6665H-1.71429V59.9999H2.28571ZM0.287163 57.9999H0.285706V61.9999H0.287163V57.9999ZM43.1428 97.6665C20.5609 97.6665 2.46825 80.6974 2.28709 59.9824L-1.71276 60.0174C-1.51021 83.1782 18.6245 101.667 43.1428 101.667V97.6665ZM83.9986 59.9824C83.8174 80.6974 65.7248 97.6665 43.1428 97.6665V101.667C67.6612 101.667 87.7959 83.1782 87.9985 60.0174L83.9986 59.9824ZM86 57.9999H85.9985V61.9999H86V57.9999ZM84 59.6665V59.9999H88V59.6665H84ZM84 -0.00012207V59.6665H88V-0.00012207H84Z" fill="#3C5DF6" mask="url(#path-1-inside-1_1622_3920)"/>
<path fill-rule="evenodd" clip-rule="evenodd" d="M35.4874 24.357C36.2884 34.7082 42.321 54.497 61.3925 70.1392C58.4454 72.6235 54.9543 74.4829 51.1233 75.513C31.2619 59.6224 26.035 38.9311 25.7919 30.2209C28.5387 27.6266 31.8348 25.6077 35.4874 24.357ZM21.7255 35.0904C23.321 45.5716 29.3887 62.3954 45.1042 76.4121C44.7904 76.423 44.4751 76.4285 44.1586 76.4285C29.3828 76.4285 17.4046 64.4504 17.4046 49.6745C17.4046 44.2945 18.9926 39.2854 21.7255 35.0904ZM44.1586 22.9205C43.486 22.9205 42.8192 22.9454 42.1591 22.9941C42.5314 31.2673 47.5725 50.2418 65.971 65.1699C69.0827 60.7977 70.9126 55.4498 70.9126 49.6745C70.9126 34.8987 58.9344 22.9205 44.1586 22.9205Z" fill="white"/>
<path fill-rule="evenodd" clip-rule="evenodd" d="M33.7256 20.7222C34.5266 31.0734 40.5592 50.8621 59.6307 66.5043C56.6806 68.9912 53.1853 70.8519 49.3497 71.8813L49.3668 71.8589C29.5688 56.0835 24.247 35.533 23.9252 26.6856C26.6929 24.0434 30.0264 21.9888 33.7256 20.7222ZM19.8876 31.573C21.5409 42.0973 27.6624 58.8397 43.3566 72.7767C43.0381 72.788 42.7181 72.7936 42.3968 72.7936C27.621 72.7936 15.6428 60.8155 15.6428 46.0396C15.6428 40.7098 17.2014 35.7439 19.8876 31.573ZM42.3968 19.2856C41.7242 19.2856 41.0574 19.3105 40.3973 19.3592C40.7696 27.6324 45.8107 46.607 64.2092 61.5351C67.3209 57.1628 69.1508 51.8149 69.1508 46.0396C69.1508 31.2638 57.1726 19.2856 42.3968 19.2856Z" fill="#D9D9D9"/>
<path fill-rule="evenodd" clip-rule="evenodd" d="M33.7256 20.7222C34.5266 31.0734 40.5592 50.8621 59.6307 66.5043C56.6806 68.9912 53.1853 70.8519 49.3497 71.8813L49.3668 71.8589C29.5688 56.0835 24.247 35.533 23.9252 26.6856C26.6929 24.0434 30.0264 21.9888 33.7256 20.7222ZM19.8876 31.573C21.5409 42.0973 27.6624 58.8397 43.3566 72.7767C43.0381 72.788 42.7181 72.7936 42.3968 72.7936C27.621 72.7936 15.6428 60.8155 15.6428 46.0396C15.6428 40.7098 17.2014 35.7439 19.8876 31.573ZM42.3968 19.2856C41.7242 19.2856 41.0574 19.3105 40.3973 19.3592C40.7696 27.6324 45.8107 46.607 64.2092 61.5351C67.3209 57.1628 69.1508 51.8149 69.1508 46.0396C69.1508 31.2638 57.1726 19.2856 42.3968 19.2856Z" fill="url(#paint1_radial_1622_3920)"/>
<path d="M59.3201 22.872C59.5857 21.8853 60.9856 21.8853 61.2513 22.872L62.4089 27.1711C62.5015 27.5153 62.7703 27.7841 63.1145 27.8768L67.4137 29.0343C68.4003 29.3 68.4003 30.6999 67.4137 30.9655L63.1145 32.1231C62.7703 32.2157 62.5015 32.4846 62.4089 32.8287L61.2513 37.1279C60.9856 38.1146 59.5857 38.1146 59.3201 37.1279L58.1625 32.8287C58.0699 32.4846 57.8011 32.2157 57.4569 32.1231L53.1577 30.9655C52.1711 30.6999 52.1711 29.3 53.1577 29.0343L57.4569 27.8768C57.8011 27.7841 58.0699 27.5153 58.1625 27.1711L59.3201 22.872Z" fill="white"/>
<path d="M19.8029 56.0787C19.9357 55.5854 20.6357 55.5854 20.7685 56.0787L21.7261 59.6352C21.7724 59.8073 21.9068 59.9417 22.0789 59.9881L25.6354 60.9456C26.1287 61.0785 26.1287 61.7784 25.6354 61.9112L22.0789 62.8688C21.9068 62.9152 21.7724 63.0496 21.7261 63.2216L20.7685 66.7781C20.6357 67.2715 19.9357 67.2715 19.8029 66.7781L18.8453 63.2216C18.799 63.0496 18.6646 62.9152 18.4925 62.8688L14.936 61.9112C14.4426 61.7784 14.4426 61.0785 14.936 60.9456L18.4925 59.9881C18.6646 59.9417 18.799 59.8073 18.8453 59.6352L19.8029 56.0787Z" fill="#F9D423"/>
<defs>
<linearGradient id="paint0_linear_1622_3920" x1="43.1428" y1="-0.00012207" x2="43.1428" y2="99.9999" gradientUnits="userSpaceOnUse">
<stop stop-color="#3C5DF6" stop-opacity="0"/>
<stop offset="1" stop-color="#3C5DF6"/>
</linearGradient>
<radialGradient id="paint1_radial_1622_3920" cx="0" cy="0" r="1" gradientUnits="userSpaceOnUse" gradientTransform="translate(-40.1642 -6.34401) scale(177.618 129.225)">
<stop stop-color="#3C5CF6"/>
<stop offset="0.41432" stop-color="#87ABF0"/>
<stop offset="0.593597" stop-color="#3C5CF6"/>
<stop offset="0.77608" stop-color="#17288F"/>
<stop offset="0.88457" stop-color="#3C5CF6"/>
</radialGradient>
</defs>
</svg>
