<svg width="80" height="80" viewBox="0 0 80 80" fill="none" xmlns="http://www.w3.org/2000/svg"><g clip-path="url(#clip0_639_526)"><path d="M0 47.484l12.681 7.248 6.763-4.577v-8.05L0 47.485z" fill="#FF461F"/><path d="M66.494 28.052l7.962-4.24-19.494-8.973-7.737 12.49-.825 4.315c.031.056.075.106.106.168.175.3.338.617.481.96a11.95 11.95 0 012.52-4.036c2.293-2.428 5.506-3.823 8.824-3.823 3.144 0 6.007 1.196 8.169 3.145l-.006-.006z" fill="#B4FF0C"/><path d="M39.094 17.716l-.725-7.902c.9.63 2.118 1.028 3.669 1.258l.093 6.581a16.48 16.48 0 01-3.031.069l-.006-.006zm-4.675-2.024c-.181-.342-.163-.747.262-1.183.431-.442 1.425-.722 2.113-.878.425-.093.731-.143.731-.143l.513 4.04a10.481 10.481 0 01-2.27-.746c-.168-.081-1.037-.492-1.355-1.102l.006.012z" fill="#FF461F"/><path d="M35.6 27.734l2.25-.081c3.212-.08 6.675.91 8.556 3.985l4.038-21.195s-1.607-2.54-6.213-3.219c-5.225-.766-5.712.592-5.681.847.106.953 4.163 1.806 5.85 1.949l-2.15 17.47-.112-8.468c-3.594.411-7.894-.585-8.382-2.241l1.838 10.94.006.012z" fill="#FF461F"/><path d="M26.313 10.524L9.68 23.974l9 4.345 16.919-.585-9.288-17.21z" fill="#B4FF0C"/><path d="M19.444 52.11L6.05 62.421l22.875 1.576 6.588-7.852-16.07 2.254V52.11z" fill="#FF461F"/><path d="M40.044 55.51l-4.531.635-5.132 16.83 32.581-4.564L52.22 55.796l-12.175 1.246V55.51z" fill="#B4FF0C"/><path d="M54.263 55.59l8.018 8.587 16.1-7.496-7.006-3.842-.412 1.04-16.7 1.712z" fill="#FF461F"/><path d="M70.963 53.879l.412-1.04L80 31.053l-9.806 3.262a12.086 12.086 0 00-3.7-6.27 12.165 12.165 0 00-8.169-3.144c-3.319 0-6.531 1.395-8.825 3.823a11.948 11.948 0 00-2.519 4.035 8.58 8.58 0 00-.481-.96c-1.856-3.212-5.388-4.233-8.656-4.152l-2.244.08-16.913.592-15.018.523L11.95 41.32l7.5-1.059v18.132l16.069-2.254 4.531-.635v1.538l12.175-1.246 2.044-.211 16.7-1.706h-.006z" fill="#10044A"/><path d="M58.325 27.205c5.469 0 9.856 4.383 9.856 9.788 0 5.404-4.4 9.788-9.825 9.788a9.821 9.821 0 01-6.912-2.834l11.25-3.735.962-2.51-13.431 4.782c-.156-.224-.3-.46-.431-.697l15.125-6.301.931-2.653-16.769 7.379c-.087-.25-.162-.498-.231-.754l12.444-6.593 1.144-2.958-13.876 7.727c-.368-5.865 4.332-10.43 9.763-10.43zm11 24.532L76.031 34.8l-5.562 1.85c.181 6.338-4.631 11.817-11.05 12.377-4.444.386-8.531-1.68-10.95-5.062l-6.119 2.036v1.937l-5.388.753 6.97-9.196c2.937-3.917.905-9.776-6.013-9.533L7.856 31.009l5.207 7.84 8.693-1.227v18.143l6.413-.884V36.72l10.318-1.451c1.482-.206 1.963 1.033 1.2 2.023l-9.193 12.055v5.205l11.862-1.681v1.638l26.975-2.759-.006-.012z" fill="#fff"/></g><defs><clipPath id="clip0_639_526"><path fill="#fff" transform="translate(0 7)" d="M0 0h80v66H0z"/></clipPath></defs></svg>